<mxfile host="app.diagrams.net" modified="2023-11-01T12:00:00.000Z" agent="Mozilla/5.0" etag="abc123" version="21.6.6">
  <diagram name="Страница редактирования коллекции - Мобильная версия" id="collection-edit-mobile">
    <mxGraphModel dx="375" dy="667" grid="1" gridSize="10" guides="1" tooltips="1" connect="1" arrows="1" fold="1" page="1" pageScale="1" pageWidth="375" pageHeight="667" math="0" shadow="0">
      <root>
        <mxCell id="0" />
        <mxCell id="1" parent="0" />
        <!-- Верхняя панель навигации -->
        <mxCell id="header" value="" style="rounded=0;whiteSpace=wrap;html=1;fillColor=#f5f5f5;strokeColor=#666666;fontColor=#333333;" vertex="1" parent="1">
          <mxGeometry x="0" y="0" width="375" height="50" as="geometry" />
        </mxCell>
        <mxCell id="back_button" value="←" style="text;html=1;strokeColor=none;fillColor=none;align=center;verticalAlign=middle;whiteSpace=wrap;rounded=0;fontSize=24;" vertex="1" parent="1">
          <mxGeometry x="10" y="10" width="30" height="30" as="geometry" />
        </mxCell>
        <mxCell id="page_title" value="Редактирование коллекции" style="text;html=1;strokeColor=none;fillColor=none;align=center;verticalAlign=middle;whiteSpace=wrap;rounded=0;fontStyle=1;fontSize=16;" vertex="1" parent="1">
          <mxGeometry x="87.5" y="10" width="200" height="30" as="geometry" />
        </mxCell>
        <mxCell id="save_button" value="Сохранить" style="text;html=1;strokeColor=none;fillColor=none;align=center;verticalAlign=middle;whiteSpace=wrap;rounded=0;fontSize=14;fontColor=#0066cc;" vertex="1" parent="1">
          <mxGeometry x="290" y="10" width="70" height="30" as="geometry" />
        </mxCell>
        <!-- Форма редактирования -->
        <mxCell id="edit_form" value="" style="rounded=0;whiteSpace=wrap;html=1;fillColor=#ffffff;strokeColor=none;" vertex="1" parent="1">
          <mxGeometry x="0" y="50" width="375" height="567" as="geometry" />
        </mxCell>
        <!-- Обложка коллекции -->
        <mxCell id="cover_container" value="" style="rounded=1;whiteSpace=wrap;html=1;fillColor=#f5f5f5;strokeColor=#dddddd;" vertex="1" parent="1">
          <mxGeometry x="20" y="70" width="335" height="160" as="geometry" />
        </mxCell>
        <mxCell id="cover_icon" value="📷" style="text;html=1;strokeColor=none;fillColor=none;align=center;verticalAlign=middle;whiteSpace=wrap;rounded=0;fontSize=32;" vertex="1" parent="1">
          <mxGeometry x="167.5" y="110" width="40" height="40" as="geometry" />
        </mxCell>
        <mxCell id="cover_text" value="Нажмите, чтобы добавить обложку" style="text;html=1;strokeColor=none;fillColor=none;align=center;verticalAlign=middle;whiteSpace=wrap;rounded=0;fontSize=12;fontColor=#666666;" vertex="1" parent="1">
          <mxGeometry x="87.5" y="150" width="200" height="20" as="geometry" />
        </mxCell>
        <!-- Основная информация -->
        <mxCell id="name_label" value="Название коллекции" style="text;html=1;strokeColor=none;fillColor=none;align=left;verticalAlign=bottom;whiteSpace=wrap;rounded=0;fontSize=12;fontColor=#666666;" vertex="1" parent="1">
          <mxGeometry x="20" y="250" width="335" height="20" as="geometry" />
        </mxCell>
        <mxCell id="name_input" value="" style="rounded=1;whiteSpace=wrap;html=1;fillColor=#ffffff;strokeColor=#cccccc;" vertex="1" parent="1">
          <mxGeometry x="20" y="270" width="335" height="40" as="geometry" />
        </mxCell>
        <mxCell id="description_label" value="Описание" style="text;html=1;strokeColor=none;fillColor=none;align=left;verticalAlign=bottom;whiteSpace=wrap;rounded=0;fontSize=12;fontColor=#666666;" vertex="1" parent="1">
          <mxGeometry x="20" y="330" width="335" height="20" as="geometry" />
        </mxCell>
        <mxCell id="description_input" value="" style="rounded=1;whiteSpace=wrap;html=1;fillColor=#ffffff;strokeColor=#cccccc;" vertex="1" parent="1">
          <mxGeometry x="20" y="350" width="335" height="80" as="geometry" />
        </mxCell>
        <!-- Настройки приватности -->
        <mxCell id="privacy_label" value="Настройки приватности" style="text;html=1;strokeColor=none;fillColor=none;align=left;verticalAlign=bottom;whiteSpace=wrap;rounded=0;fontSize=12;fontColor=#666666;" vertex="1" parent="1">
          <mxGeometry x="20" y="450" width="335" height="20" as="geometry" />
        </mxCell>
        <mxCell id="privacy_toggle" value="" style="rounded=1;whiteSpace=wrap;html=1;fillColor=#ffffff;strokeColor=#cccccc;" vertex="1" parent="1">
          <mxGeometry x="20" y="470" width="335" height="50" as="geometry" />
        </mxCell>
        <mxCell id="privacy_icon" value="🔒" style="text;html=1;strokeColor=none;fillColor=none;align=center;verticalAlign=middle;whiteSpace=wrap;rounded=0;fontSize=16;" vertex="1" parent="1">
          <mxGeometry x="30" y="480" width="30" height="30" as="geometry" />
        </mxCell>
        <mxCell id="privacy_text" value="Приватная коллекция" style="text;html=1;strokeColor=none;fillColor=none;align=left;verticalAlign=middle;whiteSpace=wrap;rounded=0;fontSize=14;" vertex="1" parent="1">
          <mxGeometry x="70" y="480" width="245" height="30" as="geometry" />
        </mxCell>
        <mxCell id="privacy_switch" value="" style="rounded=1;whiteSpace=wrap;html=1;fillColor=#dae8fc;strokeColor=#6c8ebf;" vertex="1" parent="1">
          <mxGeometry x="315" y="485" width="30" height="20" as="geometry" />
        </mxCell>
        <!-- Добавление элементов -->
        <mxCell id="items_label" value="Элементы коллекции" style="text;html=1;strokeColor=none;fillColor=none;align=left;verticalAlign=bottom;whiteSpace=wrap;rounded=0;fontSize=12;fontColor=#666666;" vertex="1" parent="1">
          <mxGeometry x="20" y="540" width="335" height="20" as="geometry" />
        </mxCell>
        <mxCell id="add_item_button" value="+ Добавить элемент" style="rounded=1;whiteSpace=wrap;html=1;fillColor=#f5f5f5;strokeColor=#666666;fontSize=14;" vertex="1" parent="1">
          <mxGeometry x="20" y="560" width="335" height="40" as="geometry" />
        </mxCell>
        <!-- Нижняя навигационная панель -->
        <mxCell id="bottom_nav" value="" style="rounded=0;whiteSpace=wrap;html=1;fillColor=#f5f5f5;strokeColor=#666666;fontColor=#333333;" vertex="1" parent="1">
          <mxGeometry x="0" y="617" width="375" height="50" as="geometry" />
        </mxCell>
        <mxCell id="nav_home" value="🏠" style="text;html=1;strokeColor=none;fillColor=none;align=center;verticalAlign=middle;whiteSpace=wrap;rounded=0;fontSize=16;" vertex="1" parent="1">
          <mxGeometry x="20" y="627" width="30" height="30" as="geometry" />
        </mxCell>
        <mxCell id="nav_search" value="🔍" style="text;html=1;strokeColor=none;fillColor=none;align=center;verticalAlign=middle;whiteSpace=wrap;rounded=0;fontSize=16;" vertex="1" parent="1">
          <mxGeometry x="100" y="627" width="30" height="30" as="geometry" />
        </mxCell>
        <mxCell id="nav_library" value="📚" style="text;html=1;strokeColor=none;fillColor=none;align=center;verticalAlign=middle;whiteSpace=wrap;rounded=0;fontSize=16;" vertex="1" parent="1">
          <mxGeometry x="180" y="627" width="30" height="30" as="geometry" />
        </mxCell>
        <mxCell id="nav_achievements" value="🏆" style="text;html=1;strokeColor=none;fillColor=none;align=center;verticalAlign=middle;whiteSpace=wrap;rounded=0;fontSize=16;" vertex="1" parent="1">
          <mxGeometry x="260" y="627" width="30" height="30" as="geometry" />
        </mxCell>
        <mxCell id="nav_profile" value="👤" style="text;html=1;strokeColor=none;fillColor=none;align=center;verticalAlign=middle;whiteSpace=wrap;rounded=0;fontSize=16;" vertex="1" parent="1">
          <mxGeometry x="330" y="627" width="30" height="30" as="geometry" />
        </mxCell>
      </root>
    </mxGraphModel>
  </diagram>
</mxfile>